<svg width="62" height="19" viewBox="0 0 62 19" fill="none" xmlns="http://www.w3.org/2000/svg">
<path d="M14.0803 16.5C12.6637 17.9167 11.0138 18.625 9.13058 18.625C7.96398 18.625 6.86404 18.3917 5.83076 17.925C4.81416 17.4583 3.92254 16.8167 3.15592 16C2.40596 15.1833 1.80599 14.225 1.35602 13.125C0.92271 12.0083 0.706055 10.8083 0.706055 9.525C0.706055 8.30834 0.92271 7.16667 1.35602 6.1C1.80599 5.01667 2.41429 4.075 3.18091 3.275C3.9642 2.45833 4.88082 1.81667 5.93076 1.35C6.9807 0.866666 8.1223 0.625 9.35557 0.625C11.0221 0.625 12.4471 0.975 13.6303 1.675C14.8303 2.375 15.7302 3.31667 16.3302 4.5L13.7553 6.4C13.3053 5.51667 12.672 4.84167 11.8554 4.375C11.0555 3.90833 10.1805 3.675 9.23058 3.675C8.48062 3.675 7.78899 3.83333 7.15569 4.15C6.53906 4.46667 6.00576 4.9 5.55578 5.45C5.12247 6 4.78082 6.63333 4.53084 7.35C4.29752 8.06667 4.18086 8.825 4.18086 9.625C4.18086 10.4583 4.31418 11.2417 4.58084 11.975C4.84749 12.6917 5.21413 13.3167 5.68077 13.85C6.14741 14.3833 6.69738 14.8083 7.33068 15.125C7.98064 15.425 8.68061 15.575 9.43056 15.575C11.1471 15.575 12.697 14.7667 14.0803 13.15V11.9H10.5055V9.375H16.9301V18.5H14.0803V16.5Z" fill="#464646"/>
<path d="M25.6199 18.75C24.5699 18.75 23.62 18.575 22.77 18.225C21.9201 17.8583 21.1951 17.3667 20.5952 16.75C19.9952 16.1333 19.5286 15.4167 19.1952 14.6C18.8786 13.7833 18.7203 12.925 18.7203 12.025C18.7203 11.0917 18.8786 10.2167 19.1952 9.4C19.5119 8.56667 19.9702 7.84167 20.5702 7.225C21.1701 6.59167 21.8951 6.09167 22.7451 5.725C23.6117 5.35833 24.5783 5.175 25.6449 5.175C26.7115 5.175 27.6614 5.35833 28.4947 5.725C29.3447 6.09167 30.0613 6.58333 30.6446 7.2C31.2446 7.81667 31.6945 8.53333 31.9945 9.35C32.3112 10.1667 32.4695 11.0167 32.4695 11.9C32.4695 12.1167 32.4612 12.325 32.4445 12.525C32.4445 12.725 32.4278 12.8917 32.3945 13.025H22.2701C22.3201 13.5417 22.4451 14 22.6451 14.4C22.845 14.8 23.1034 15.1417 23.42 15.425C23.7367 15.7083 24.095 15.925 24.495 16.075C24.8949 16.225 25.3116 16.3 25.7449 16.3C26.4115 16.3 27.0365 16.1417 27.6198 15.825C28.2197 15.4917 28.6281 15.0583 28.8447 14.525L31.7195 15.325C31.2362 16.325 30.4613 17.15 29.3947 17.8C28.3447 18.4333 27.0865 18.75 25.6199 18.75ZM29.0197 10.85C28.9364 9.86667 28.5697 9.08334 27.9198 8.5C27.2865 7.9 26.5115 7.6 25.5949 7.6C25.1449 7.6 24.7199 7.68334 24.32 7.85C23.9367 8 23.595 8.21667 23.295 8.5C22.995 8.78334 22.745 9.125 22.5451 9.525C22.3617 9.925 22.2534 10.3667 22.2201 10.85H29.0197Z" fill="#464646"/>
<path d="M40.5849 18.75C39.5349 18.75 38.585 18.575 37.735 18.225C36.8851 17.8583 36.1601 17.3667 35.5601 16.75C34.9602 16.1333 34.4935 15.4167 34.1602 14.6C33.8436 13.7833 33.6853 12.925 33.6853 12.025C33.6853 11.0917 33.8436 10.2167 34.1602 9.4C34.4769 8.56667 34.9352 7.84167 35.5351 7.225C36.1351 6.59167 36.8601 6.09167 37.71 5.725C38.5766 5.35833 39.5433 5.175 40.6099 5.175C41.6765 5.175 42.6264 5.35833 43.4597 5.725C44.3097 6.09167 45.0263 6.58333 45.6096 7.2C46.2096 7.81667 46.6595 8.53333 46.9595 9.35C47.2762 10.1667 47.4345 11.0167 47.4345 11.9C47.4345 12.1167 47.4262 12.325 47.4095 12.525C47.4095 12.725 47.3928 12.8917 47.3595 13.025H37.2351C37.2851 13.5417 37.41 14 37.61 14.4C37.81 14.8 38.0683 15.1417 38.385 15.425C38.7016 15.7083 39.0599 15.925 39.4599 16.075C39.8599 16.225 40.2766 16.3 40.7099 16.3C41.3765 16.3 42.0014 16.1417 42.5847 15.825C43.1847 15.4917 43.593 15.0583 43.8097 14.525L46.6845 15.325C46.2012 16.325 45.4263 17.15 44.3596 17.8C43.3097 18.4333 42.0514 18.75 40.5849 18.75ZM43.9847 10.85C43.9013 9.86667 43.5347 9.08334 42.8847 8.5C42.2514 7.9 41.4765 7.6 40.5599 7.6C40.1099 7.6 39.6849 7.68334 39.2849 7.85C38.9016 8 38.56 8.21667 38.26 8.5C37.96 8.78334 37.71 9.125 37.51 9.525C37.3267 9.925 37.2184 10.3667 37.1851 10.85H43.9847Z" fill="#464646"/>
<path d="M58.4247 18.5L54.6249 12.825L52.825 14.6V18.5H49.4752V0.25H52.825V11.325L58.0747 5.425H61.6495L56.7748 10.975L61.9995 18.5H58.4247Z" fill="#464646"/>
</svg>
